<mxfile host="app.diagrams.net" modified="2024-04-14T19:39:17.958Z" agent="Mozilla/5.0 (Windows NT 10.0; Win64; x64) AppleWebKit/537.36 (KHTML, like Gecko) Chrome/123.0.0.0 Safari/537.36" etag="9Ff-x7Zf11NvM-KAEklG" version="24.0.7" type="device">
  <diagram name="Сторінка-1" id="dbkqBONt3MU2AwCkQiVE">
    <mxGraphModel dx="1357" dy="843" grid="1" gridSize="10" guides="1" tooltips="1" connect="1" arrows="1" fold="1" page="1" pageScale="1" pageWidth="827" pageHeight="1169" math="0" shadow="0">
      <root>
        <mxCell id="0" />
        <mxCell id="1" parent="0" />
        <mxCell id="mpu4qJ9H1tzs-08iEJ1Q-73" value="IAbstractFactory" style="swimlane;fontStyle=1;align=center;verticalAlign=top;childLayout=stackLayout;horizontal=1;startSize=26;horizontalStack=0;resizeParent=1;resizeParentMax=0;resizeLast=0;collapsible=1;marginBottom=0;whiteSpace=wrap;html=1;fontSize=15;" parent="1" vertex="1">
          <mxGeometry x="60" y="310" width="300" height="166" as="geometry" />
        </mxCell>
        <mxCell id="mpu4qJ9H1tzs-08iEJ1Q-75" value="" style="line;strokeWidth=1;fillColor=none;align=left;verticalAlign=middle;spacingTop=-1;spacingLeft=3;spacingRight=3;rotatable=0;labelPosition=right;points=[];portConstraint=eastwest;strokeColor=inherit;fontSize=15;" parent="mpu4qJ9H1tzs-08iEJ1Q-73" vertex="1">
          <mxGeometry y="26" width="300" height="8" as="geometry" />
        </mxCell>
        <mxCell id="mpu4qJ9H1tzs-08iEJ1Q-76" value="&lt;span style=&quot;font-size: 15px;&quot;&gt;+ createHeadphones(): IHeadphones&lt;/span&gt;&lt;div style=&quot;font-size: 15px;&quot;&gt;+ createLaptop(): ILaptop&lt;br style=&quot;font-size: 15px;&quot;&gt;&lt;/div&gt;&lt;div style=&quot;font-size: 15px;&quot;&gt;+ createSmartphone(): ISmartphone&lt;br style=&quot;font-size: 15px;&quot;&gt;&lt;/div&gt;&lt;div style=&quot;font-size: 15px;&quot;&gt;&lt;br style=&quot;font-size: 15px;&quot;&gt;&lt;/div&gt;&lt;div style=&quot;font-size: 15px;&quot;&gt;&lt;br style=&quot;font-size: 15px;&quot;&gt;&lt;/div&gt;&lt;div style=&quot;font-size: 15px;&quot;&gt;&lt;br style=&quot;font-size: 15px;&quot;&gt;&lt;/div&gt;" style="text;strokeColor=none;fillColor=none;align=left;verticalAlign=top;spacingLeft=4;spacingRight=4;overflow=hidden;rotatable=0;points=[[0,0.5],[1,0.5]];portConstraint=eastwest;whiteSpace=wrap;html=1;fontSize=15;" parent="mpu4qJ9H1tzs-08iEJ1Q-73" vertex="1">
          <mxGeometry y="34" width="300" height="132" as="geometry" />
        </mxCell>
        <mxCell id="Zc4fr_XeoNPX_t9EJKzW-2" value="KiaomiFactory" style="swimlane;fontStyle=1;align=center;verticalAlign=top;childLayout=stackLayout;horizontal=1;startSize=26;horizontalStack=0;resizeParent=1;resizeParentMax=0;resizeLast=0;collapsible=1;marginBottom=0;whiteSpace=wrap;html=1;fontSize=15;" vertex="1" parent="1">
          <mxGeometry x="70" y="60" width="300" height="166" as="geometry" />
        </mxCell>
        <mxCell id="Zc4fr_XeoNPX_t9EJKzW-3" value="" style="line;strokeWidth=1;fillColor=none;align=left;verticalAlign=middle;spacingTop=-1;spacingLeft=3;spacingRight=3;rotatable=0;labelPosition=right;points=[];portConstraint=eastwest;strokeColor=inherit;fontSize=15;" vertex="1" parent="Zc4fr_XeoNPX_t9EJKzW-2">
          <mxGeometry y="26" width="300" height="8" as="geometry" />
        </mxCell>
        <mxCell id="Zc4fr_XeoNPX_t9EJKzW-4" value="&lt;span style=&quot;font-size: 15px;&quot;&gt;+ createHeadphones(): IHeadphones&lt;/span&gt;&lt;div style=&quot;font-size: 15px;&quot;&gt;+ createLaptop(): ILaptop&lt;br style=&quot;font-size: 15px;&quot;&gt;&lt;/div&gt;&lt;div style=&quot;font-size: 15px;&quot;&gt;+ createSmartphone(): ISmartphone&lt;br style=&quot;font-size: 15px;&quot;&gt;&lt;/div&gt;&lt;div style=&quot;font-size: 15px;&quot;&gt;&lt;br style=&quot;font-size: 15px;&quot;&gt;&lt;/div&gt;&lt;div style=&quot;font-size: 15px;&quot;&gt;&lt;br style=&quot;font-size: 15px;&quot;&gt;&lt;/div&gt;&lt;div style=&quot;font-size: 15px;&quot;&gt;&lt;br style=&quot;font-size: 15px;&quot;&gt;&lt;/div&gt;" style="text;strokeColor=none;fillColor=none;align=left;verticalAlign=top;spacingLeft=4;spacingRight=4;overflow=hidden;rotatable=0;points=[[0,0.5],[1,0.5]];portConstraint=eastwest;whiteSpace=wrap;html=1;fontSize=15;" vertex="1" parent="Zc4fr_XeoNPX_t9EJKzW-2">
          <mxGeometry y="34" width="300" height="132" as="geometry" />
        </mxCell>
        <mxCell id="Zc4fr_XeoNPX_t9EJKzW-5" value="BalaxyFactory" style="swimlane;fontStyle=1;align=center;verticalAlign=top;childLayout=stackLayout;horizontal=1;startSize=26;horizontalStack=0;resizeParent=1;resizeParentMax=0;resizeLast=0;collapsible=1;marginBottom=0;whiteSpace=wrap;html=1;fontSize=15;" vertex="1" parent="1">
          <mxGeometry x="70" y="570" width="300" height="166" as="geometry" />
        </mxCell>
        <mxCell id="Zc4fr_XeoNPX_t9EJKzW-6" value="" style="line;strokeWidth=1;fillColor=none;align=left;verticalAlign=middle;spacingTop=-1;spacingLeft=3;spacingRight=3;rotatable=0;labelPosition=right;points=[];portConstraint=eastwest;strokeColor=inherit;fontSize=15;" vertex="1" parent="Zc4fr_XeoNPX_t9EJKzW-5">
          <mxGeometry y="26" width="300" height="8" as="geometry" />
        </mxCell>
        <mxCell id="Zc4fr_XeoNPX_t9EJKzW-7" value="&lt;span style=&quot;font-size: 15px;&quot;&gt;+ createHeadphones(): IHeadphones&lt;/span&gt;&lt;div style=&quot;font-size: 15px;&quot;&gt;+ createLaptop(): ILaptop&lt;br style=&quot;font-size: 15px;&quot;&gt;&lt;/div&gt;&lt;div style=&quot;font-size: 15px;&quot;&gt;+ createSmartphone(): ISmartphone&lt;br style=&quot;font-size: 15px;&quot;&gt;&lt;/div&gt;&lt;div style=&quot;font-size: 15px;&quot;&gt;&lt;br style=&quot;font-size: 15px;&quot;&gt;&lt;/div&gt;&lt;div style=&quot;font-size: 15px;&quot;&gt;&lt;br style=&quot;font-size: 15px;&quot;&gt;&lt;/div&gt;&lt;div style=&quot;font-size: 15px;&quot;&gt;&lt;br style=&quot;font-size: 15px;&quot;&gt;&lt;/div&gt;" style="text;strokeColor=none;fillColor=none;align=left;verticalAlign=top;spacingLeft=4;spacingRight=4;overflow=hidden;rotatable=0;points=[[0,0.5],[1,0.5]];portConstraint=eastwest;whiteSpace=wrap;html=1;fontSize=15;" vertex="1" parent="Zc4fr_XeoNPX_t9EJKzW-5">
          <mxGeometry y="34" width="300" height="132" as="geometry" />
        </mxCell>
        <mxCell id="Zc4fr_XeoNPX_t9EJKzW-8" value="" style="endArrow=block;dashed=1;endFill=0;endSize=12;html=1;rounded=0;exitX=0.463;exitY=1.011;exitDx=0;exitDy=0;exitPerimeter=0;fontSize=15;" edge="1" parent="1" source="Zc4fr_XeoNPX_t9EJKzW-4" target="mpu4qJ9H1tzs-08iEJ1Q-73">
          <mxGeometry width="160" relative="1" as="geometry">
            <mxPoint x="250" y="450" as="sourcePoint" />
            <mxPoint x="410" y="450" as="targetPoint" />
          </mxGeometry>
        </mxCell>
        <mxCell id="Zc4fr_XeoNPX_t9EJKzW-11" value="" style="endArrow=block;dashed=1;endFill=0;endSize=12;html=1;rounded=0;exitX=0.44;exitY=-0.018;exitDx=0;exitDy=0;exitPerimeter=0;entryX=0.473;entryY=1.03;entryDx=0;entryDy=0;entryPerimeter=0;fontSize=15;" edge="1" parent="1" source="Zc4fr_XeoNPX_t9EJKzW-5" target="mpu4qJ9H1tzs-08iEJ1Q-76">
          <mxGeometry width="160" relative="1" as="geometry">
            <mxPoint x="250" y="450" as="sourcePoint" />
            <mxPoint x="410" y="450" as="targetPoint" />
          </mxGeometry>
        </mxCell>
        <mxCell id="Zc4fr_XeoNPX_t9EJKzW-17" value="BalaxyHeadphones" style="html=1;whiteSpace=wrap;fontSize=15;" vertex="1" parent="1">
          <mxGeometry x="450" y="570" width="140" height="50" as="geometry" />
        </mxCell>
        <mxCell id="Zc4fr_XeoNPX_t9EJKzW-18" value="BalaxyLaptop" style="html=1;whiteSpace=wrap;fontSize=15;" vertex="1" parent="1">
          <mxGeometry x="650" y="570" width="140" height="50" as="geometry" />
        </mxCell>
        <mxCell id="Zc4fr_XeoNPX_t9EJKzW-19" value="BalaxySmartphone" style="html=1;whiteSpace=wrap;fontSize=15;" vertex="1" parent="1">
          <mxGeometry x="850" y="570" width="140" height="50" as="geometry" />
        </mxCell>
        <mxCell id="Zc4fr_XeoNPX_t9EJKzW-20" value="KiaomiHeadphones" style="html=1;whiteSpace=wrap;fontSize=15;" vertex="1" parent="1">
          <mxGeometry x="450" y="180" width="140" height="50" as="geometry" />
        </mxCell>
        <mxCell id="Zc4fr_XeoNPX_t9EJKzW-21" value="KiaomiLaptop" style="html=1;whiteSpace=wrap;fontSize=15;" vertex="1" parent="1">
          <mxGeometry x="650" y="180" width="140" height="50" as="geometry" />
        </mxCell>
        <mxCell id="Zc4fr_XeoNPX_t9EJKzW-22" value="KiaomiSmartphone" style="html=1;whiteSpace=wrap;fontSize=15;" vertex="1" parent="1">
          <mxGeometry x="850" y="180" width="140" height="50" as="geometry" />
        </mxCell>
        <mxCell id="Zc4fr_XeoNPX_t9EJKzW-23" value="" style="endArrow=none;dashed=1;html=1;dashPattern=1 3;strokeWidth=2;rounded=0;exitX=1.001;exitY=0.407;exitDx=0;exitDy=0;exitPerimeter=0;" edge="1" parent="1" source="Zc4fr_XeoNPX_t9EJKzW-7">
          <mxGeometry width="50" height="50" relative="1" as="geometry">
            <mxPoint x="630" y="610" as="sourcePoint" />
            <mxPoint x="930" y="658" as="targetPoint" />
          </mxGeometry>
        </mxCell>
        <mxCell id="Zc4fr_XeoNPX_t9EJKzW-24" value="" style="endArrow=block;dashed=1;endFill=0;endSize=12;html=1;rounded=0;" edge="1" parent="1">
          <mxGeometry width="160" relative="1" as="geometry">
            <mxPoint x="510" y="660" as="sourcePoint" />
            <mxPoint x="510" y="620" as="targetPoint" />
          </mxGeometry>
        </mxCell>
        <mxCell id="Zc4fr_XeoNPX_t9EJKzW-25" value="" style="endArrow=block;dashed=1;endFill=0;endSize=12;html=1;rounded=0;" edge="1" parent="1">
          <mxGeometry width="160" relative="1" as="geometry">
            <mxPoint x="719.55" y="660" as="sourcePoint" />
            <mxPoint x="719.55" y="620" as="targetPoint" />
          </mxGeometry>
        </mxCell>
        <mxCell id="Zc4fr_XeoNPX_t9EJKzW-26" value="" style="endArrow=block;dashed=1;endFill=0;endSize=12;html=1;rounded=0;" edge="1" parent="1">
          <mxGeometry width="160" relative="1" as="geometry">
            <mxPoint x="930" y="660" as="sourcePoint" />
            <mxPoint x="930" y="620" as="targetPoint" />
          </mxGeometry>
        </mxCell>
        <mxCell id="Zc4fr_XeoNPX_t9EJKzW-27" value="" style="endArrow=none;dashed=1;html=1;dashPattern=1 3;strokeWidth=2;rounded=0;exitX=1.001;exitY=0.407;exitDx=0;exitDy=0;exitPerimeter=0;" edge="1" parent="1">
          <mxGeometry width="50" height="50" relative="1" as="geometry">
            <mxPoint x="370" y="128" as="sourcePoint" />
            <mxPoint x="930" y="128" as="targetPoint" />
          </mxGeometry>
        </mxCell>
        <mxCell id="Zc4fr_XeoNPX_t9EJKzW-28" value="" style="endArrow=block;dashed=1;endFill=0;endSize=12;html=1;rounded=0;entryX=0.426;entryY=0.044;entryDx=0;entryDy=0;entryPerimeter=0;" edge="1" parent="1" target="Zc4fr_XeoNPX_t9EJKzW-20">
          <mxGeometry width="160" relative="1" as="geometry">
            <mxPoint x="510" y="130" as="sourcePoint" />
            <mxPoint x="510" y="90" as="targetPoint" />
          </mxGeometry>
        </mxCell>
        <mxCell id="Zc4fr_XeoNPX_t9EJKzW-29" value="" style="endArrow=block;dashed=1;endFill=0;endSize=12;html=1;rounded=0;entryX=0.5;entryY=0;entryDx=0;entryDy=0;" edge="1" parent="1" target="Zc4fr_XeoNPX_t9EJKzW-21">
          <mxGeometry width="160" relative="1" as="geometry">
            <mxPoint x="719.55" y="130" as="sourcePoint" />
            <mxPoint x="719.55" y="90" as="targetPoint" />
          </mxGeometry>
        </mxCell>
        <mxCell id="Zc4fr_XeoNPX_t9EJKzW-32" value="" style="endArrow=block;dashed=1;endFill=0;endSize=12;html=1;rounded=0;entryX=0.5;entryY=0;entryDx=0;entryDy=0;" edge="1" parent="1">
          <mxGeometry width="160" relative="1" as="geometry">
            <mxPoint x="919.6199999999999" y="130" as="sourcePoint" />
            <mxPoint x="920.0699999999999" y="180" as="targetPoint" />
          </mxGeometry>
        </mxCell>
        <mxCell id="Zc4fr_XeoNPX_t9EJKzW-33" value="IHeadphones" style="swimlane;fontStyle=1;align=center;verticalAlign=top;childLayout=stackLayout;horizontal=1;startSize=26;horizontalStack=0;resizeParent=1;resizeParentMax=0;resizeLast=0;collapsible=1;marginBottom=0;whiteSpace=wrap;html=1;fontSize=15;" vertex="1" parent="1">
          <mxGeometry x="440" y="324" width="160" height="138" as="geometry" />
        </mxCell>
        <mxCell id="Zc4fr_XeoNPX_t9EJKzW-34" value="+ MaxVolume: double&lt;div style=&quot;font-size: 15px;&quot;&gt;+ FormFactor: string&lt;/div&gt;&lt;div style=&quot;font-size: 15px;&quot;&gt;+ Features: string[]&lt;/div&gt;" style="text;strokeColor=none;fillColor=none;align=left;verticalAlign=top;spacingLeft=4;spacingRight=4;overflow=hidden;rotatable=0;points=[[0,0.5],[1,0.5]];portConstraint=eastwest;whiteSpace=wrap;html=1;fontSize=15;" vertex="1" parent="Zc4fr_XeoNPX_t9EJKzW-33">
          <mxGeometry y="26" width="160" height="104" as="geometry" />
        </mxCell>
        <mxCell id="Zc4fr_XeoNPX_t9EJKzW-35" value="" style="line;strokeWidth=1;fillColor=none;align=left;verticalAlign=middle;spacingTop=-1;spacingLeft=3;spacingRight=3;rotatable=0;labelPosition=right;points=[];portConstraint=eastwest;strokeColor=inherit;fontSize=15;" vertex="1" parent="Zc4fr_XeoNPX_t9EJKzW-33">
          <mxGeometry y="130" width="160" height="8" as="geometry" />
        </mxCell>
        <mxCell id="Zc4fr_XeoNPX_t9EJKzW-37" value="ILaptop" style="swimlane;fontStyle=1;align=center;verticalAlign=top;childLayout=stackLayout;horizontal=1;startSize=26;horizontalStack=0;resizeParent=1;resizeParentMax=0;resizeLast=0;collapsible=1;marginBottom=0;whiteSpace=wrap;html=1;fontSize=15;" vertex="1" parent="1">
          <mxGeometry x="640" y="324" width="160" height="138" as="geometry" />
        </mxCell>
        <mxCell id="Zc4fr_XeoNPX_t9EJKzW-38" value="+ Diagonal : double&amp;nbsp;&amp;nbsp;&lt;div style=&quot;font-size: 15px;&quot;&gt;+ OS : string&lt;div style=&quot;font-size: 15px;&quot;&gt;+ RAM : string&lt;/div&gt;&lt;div style=&quot;font-size: 15px;&quot;&gt;+ CPU : string&lt;/div&gt;&lt;div style=&quot;font-size: 15px;&quot;&gt;&lt;span style=&quot;background-color: initial; font-size: 15px;&quot;&gt;+ GPU :&amp;nbsp;&lt;/span&gt;&lt;span style=&quot;background-color: initial; font-size: 15px;&quot;&gt;string&lt;/span&gt;&lt;span style=&quot;background-color: initial; font-size: 15px;&quot;&gt;&amp;nbsp;&lt;/span&gt;&lt;/div&gt;&lt;/div&gt;" style="text;strokeColor=none;fillColor=none;align=left;verticalAlign=top;spacingLeft=4;spacingRight=4;overflow=hidden;rotatable=0;points=[[0,0.5],[1,0.5]];portConstraint=eastwest;whiteSpace=wrap;html=1;fontSize=15;" vertex="1" parent="Zc4fr_XeoNPX_t9EJKzW-37">
          <mxGeometry y="26" width="160" height="104" as="geometry" />
        </mxCell>
        <mxCell id="Zc4fr_XeoNPX_t9EJKzW-39" value="" style="line;strokeWidth=1;fillColor=none;align=left;verticalAlign=middle;spacingTop=-1;spacingLeft=3;spacingRight=3;rotatable=0;labelPosition=right;points=[];portConstraint=eastwest;strokeColor=inherit;fontSize=15;" vertex="1" parent="Zc4fr_XeoNPX_t9EJKzW-37">
          <mxGeometry y="130" width="160" height="8" as="geometry" />
        </mxCell>
        <mxCell id="Zc4fr_XeoNPX_t9EJKzW-41" value="ISmartphone" style="swimlane;fontStyle=1;align=center;verticalAlign=top;childLayout=stackLayout;horizontal=1;startSize=26;horizontalStack=0;resizeParent=1;resizeParentMax=0;resizeLast=0;collapsible=1;marginBottom=0;whiteSpace=wrap;html=1;fontSize=15;" vertex="1" parent="1">
          <mxGeometry x="840" y="324" width="160" height="138" as="geometry" />
        </mxCell>
        <mxCell id="Zc4fr_XeoNPX_t9EJKzW-42" value="+ Diagonal: double&lt;div&gt;+ OS : string&lt;/div&gt;&lt;div&gt;+ RAM : int&lt;/div&gt;&lt;div&gt;+ Storage : int&lt;/div&gt;" style="text;strokeColor=none;fillColor=none;align=left;verticalAlign=top;spacingLeft=4;spacingRight=4;overflow=hidden;rotatable=0;points=[[0,0.5],[1,0.5]];portConstraint=eastwest;whiteSpace=wrap;html=1;fontSize=15;" vertex="1" parent="Zc4fr_XeoNPX_t9EJKzW-41">
          <mxGeometry y="26" width="160" height="104" as="geometry" />
        </mxCell>
        <mxCell id="Zc4fr_XeoNPX_t9EJKzW-43" value="" style="line;strokeWidth=1;fillColor=none;align=left;verticalAlign=middle;spacingTop=-1;spacingLeft=3;spacingRight=3;rotatable=0;labelPosition=right;points=[];portConstraint=eastwest;strokeColor=inherit;fontSize=15;" vertex="1" parent="Zc4fr_XeoNPX_t9EJKzW-41">
          <mxGeometry y="130" width="160" height="8" as="geometry" />
        </mxCell>
        <mxCell id="Zc4fr_XeoNPX_t9EJKzW-45" value="" style="endArrow=block;dashed=1;endFill=0;endSize=12;html=1;rounded=0;exitX=0.5;exitY=1;exitDx=0;exitDy=0;entryX=0.5;entryY=0;entryDx=0;entryDy=0;" edge="1" parent="1" source="Zc4fr_XeoNPX_t9EJKzW-20" target="Zc4fr_XeoNPX_t9EJKzW-33">
          <mxGeometry width="160" relative="1" as="geometry">
            <mxPoint x="560" y="510" as="sourcePoint" />
            <mxPoint x="720" y="510" as="targetPoint" />
          </mxGeometry>
        </mxCell>
        <mxCell id="Zc4fr_XeoNPX_t9EJKzW-47" value="" style="endArrow=block;dashed=1;endFill=0;endSize=12;html=1;rounded=0;exitX=0.5;exitY=1;exitDx=0;exitDy=0;" edge="1" parent="1" source="Zc4fr_XeoNPX_t9EJKzW-21">
          <mxGeometry width="160" relative="1" as="geometry">
            <mxPoint x="560" y="510" as="sourcePoint" />
            <mxPoint x="720" y="320" as="targetPoint" />
          </mxGeometry>
        </mxCell>
        <mxCell id="Zc4fr_XeoNPX_t9EJKzW-48" value="" style="endArrow=block;dashed=1;endFill=0;endSize=12;html=1;rounded=0;exitX=0.5;exitY=1;exitDx=0;exitDy=0;" edge="1" parent="1" source="Zc4fr_XeoNPX_t9EJKzW-22" target="Zc4fr_XeoNPX_t9EJKzW-41">
          <mxGeometry width="160" relative="1" as="geometry">
            <mxPoint x="560" y="510" as="sourcePoint" />
            <mxPoint x="720" y="510" as="targetPoint" />
          </mxGeometry>
        </mxCell>
        <mxCell id="Zc4fr_XeoNPX_t9EJKzW-49" value="" style="endArrow=block;dashed=1;endFill=0;endSize=12;html=1;rounded=0;entryX=0.5;entryY=1;entryDx=0;entryDy=0;exitX=0.5;exitY=0;exitDx=0;exitDy=0;" edge="1" parent="1" source="Zc4fr_XeoNPX_t9EJKzW-17" target="Zc4fr_XeoNPX_t9EJKzW-33">
          <mxGeometry width="160" relative="1" as="geometry">
            <mxPoint x="520" y="560" as="sourcePoint" />
            <mxPoint x="720" y="510" as="targetPoint" />
          </mxGeometry>
        </mxCell>
        <mxCell id="Zc4fr_XeoNPX_t9EJKzW-50" value="" style="endArrow=block;dashed=1;endFill=0;endSize=12;html=1;rounded=0;entryX=0.5;entryY=1;entryDx=0;entryDy=0;exitX=0.5;exitY=0;exitDx=0;exitDy=0;" edge="1" parent="1" source="Zc4fr_XeoNPX_t9EJKzW-18" target="Zc4fr_XeoNPX_t9EJKzW-37">
          <mxGeometry width="160" relative="1" as="geometry">
            <mxPoint x="560" y="510" as="sourcePoint" />
            <mxPoint x="720" y="510" as="targetPoint" />
          </mxGeometry>
        </mxCell>
        <mxCell id="Zc4fr_XeoNPX_t9EJKzW-51" value="" style="endArrow=block;dashed=1;endFill=0;endSize=12;html=1;rounded=0;entryX=0.5;entryY=1;entryDx=0;entryDy=0;exitX=0.5;exitY=0;exitDx=0;exitDy=0;" edge="1" parent="1" source="Zc4fr_XeoNPX_t9EJKzW-19" target="Zc4fr_XeoNPX_t9EJKzW-41">
          <mxGeometry width="160" relative="1" as="geometry">
            <mxPoint x="560" y="510" as="sourcePoint" />
            <mxPoint x="720" y="510" as="targetPoint" />
          </mxGeometry>
        </mxCell>
      </root>
    </mxGraphModel>
  </diagram>
</mxfile>
